<svg xmlns="http://www.w3.org/2000/svg" width="32" height="32" viewBox="0 0 256 256">
  <defs>
    <linearGradient id="shieldGrad" x1="0%" y1="0%" x2="100%" y2="100%">
      <stop offset="0%" stop-color="#FF4444"/>
      <stop offset="100%" stop-color="#CC0000"/>
    </linearGradient>
  </defs>
  <!-- Shield shape -->
  <path fill="url(#shieldGrad)" d="M128 16L32 56v72c0 52.8 40.8 102.2 96 116 55.2-13.8 96-63.2 96-116V56L128 16z"/>
  <!-- SOS text -->
  <text x="128" y="148" text-anchor="middle" font-family="Arial,sans-serif" font-weight="bold" font-size="56" fill="white">SOS</text>
  <!-- Signal waves -->
  <path fill="none" stroke="white" stroke-width="4" stroke-linecap="round" d="M88 68c-8-8-8-20 0-28"/>
  <path fill="none" stroke="white" stroke-width="4" stroke-linecap="round" d="M72 68c-14-14-14-36 0-50"/>
  <path fill="none" stroke="white" stroke-width="4" stroke-linecap="round" d="M168 68c8-8 8-20 0-28"/>
  <path fill="none" stroke="white" stroke-width="4" stroke-linecap="round" d="M184 68c14-14 14-36 0-50"/>
</svg>